<svg xmlns="http://www.w3.org/2000/svg" viewBox="0 0 64 64">
  <defs>
    <linearGradient id="g" x1="0" y1="0" x2="64" y2="64" gradientUnits="userSpaceOnUse">
      <stop stop-color="#8B5CF6"/><stop offset="1" stop-color="#06B6D4"/>
    </linearGradient>
  </defs>
  <path d="M32 6c4.5 7 7 13.4 7.6 18.6C45.7 21.6 52 17.9 58 14c-2.7 9.8-7.7 16.7-13.7 20.9 5.6 2.1 11.6 2.9 17.7 2.5-6.9 7.1-14.7 10.4-22 10.1 1.5 3.1 3 6.1 4.5 9.2-6.4-2.5-10.9-6.2-12.5-10.9-1.6 4.7-6.1 8.4-12.5 10.9 1.5-3.1 3-6.1 4.5-9.2-7.3.4-15.1-3-22-10.1 6.1.4 12.1-.4 17.7-2.5C13.7 30.7 8.7 23.8 6 14c6 3.9 12.3 7.6 18.4 10.6C25 19.4 27.5 13 32 6z" fill="url(#g)"/>
</svg>